<?xml version="1.0" encoding="UTF-8"?>
<svg enable-background="new 0 0 1157 1673.687" version="1.1" viewBox="0 0 1157 1673.687" xmlns="http://www.w3.org/2000/svg">
 <path d="m969.45 1613.2c-51.667 13.074-100.42 0.638-137.9-43.697-26.074-30.84-36.793-76.156-43.698-125.72-4.621-33.174-15.621-63.845-32.952-92.052 35.834 34.917 75.988 53.677 122.14 44.772 44.012-8.493 62.841-32.929 77.366-59.099 19.555-35.231 21.482-70.896 6.089-106.38-12.457-28.715-34.05-45.818-66.263-45.13-29.552 0.631-46.822 19.496-51.578 32.594-5.462 15.043 2.782 45.503 27.938 53.01 8.478 2.53 16.496-2.02 23.64-7.164-6.767 3.192-15.625 4.385-24.356-0.358-14.191-7.708-22.494-22.581-18.983-39.041 4.1-19.223 20.144-30.995 45.13-30.445 31.191 0.687 51.928 19.391 61.965 50.861 10.159 31.856 7.858 68.149-23.998 106.02-20.344 24.186-48.064 36.297-79.515 35.101-49.104-1.866-85.776-32.454-113.9-78.083 14.312 8.221 29.02 15.268 44.414 13.611 21.31-2.294 36.68-12.216 41.907-28.296 4.316-13.277 7.113-27.364-13.252-38.683-12.019-6.681-23.443-5.174-28.654 5.731-4.38 9.165-1.731 21.444 11.104 21.491 8.867 0.032 7.983-9.231 0-19.342 10.167-4.438 19.58-2.104 23.998 8.596 7.9 19.136-3.983 38.514-31.52 41.907-37.54 4.626-67.302-33.555-98.857-74.859-38.653-50.596-56.93-105.3-28.654-175.15 26.247-64.84 86.97-104.77 152.94-145.78 36.762-22.852 52.418-69.518 56.95-127.51 27.053-18.829 50.795-40.413 71.994-64.114 47.905 6.966 109.45 28.173 175.15 53.727-37.18-27.032-95.226-53.255-161.54-79.157-2.668-11.341-7.968-21.131-10.029-30.803-4.647-21.806-11.496-36.754-33.669-45.847-42.068-17.251-81.028-9.381-118.2 29.012 5.342-17.104 0.627-42.892-11.103-45.847-11.068-2.788-21.581-3.641-28.654-13.969-11.51-16.804 1.78-42.153 30.087-69.128 19.462-18.546 28.89-38.768 24.356-64.83-8.269-47.534-97.872-103.51-183.74-170.85-90.99-71.35-165.75-169.26-199.5-251.44-11.73 100.65 52.464 204.37 166.91 305.17-90.074-62.857-149.92-127.24-174.07-193.42-11.551 91.246 61.601 199.07 213.83 270.07-91.287-33.286-206.04-115.42-212.4-150.08-3.507 17.018 2.397 33.205 12.536 50.145 18.374 30.697 99.126 110.5 162.97 142.2-43.886-12.523-86.796-38.319-128.94-74.501-4.046 44.736 54.99 97.025 153.3 154.02-18.192 1.464-58.311-25.216-97.066-50.145 4.945 24.152 36.608 53.221 113.54 90.619l-6.447 4.656c26.387 7.67 46.324 22.258 48.712 47.996 3.524 37.979-5.527 67.567-23.998 76.292-5.218-22.101-5.631-45.434-5.373-70.203 0.298-28.614-15.735-49.692-43.698-63.039-27.669-14.19-68.263-12.519-111.75-19.7-86.768-14.327-228.37-59.042-370.71-97.424-29.087-7.843-57.176-18.718-84.53-31.878 7.807 27.979 26.585 51.554 62.323 66.621 101.01 42.584 205.97 77.445 313.05 109.24-93.244-7.763-194.42-28.456-297.29-66.979-17.068-6.392-67.337-27.938-67.337-27.938 8.323 28.779 32.412 52.04 73.068 70.919 82.174 38.157 171.49 67.092 270.07 82.739-87.618-3.41-179.55-21.243-275.44-52.294 4.971 30.487 30.078 52.825 74.859 68.77 55.17 19.644 124.06 33.825 202.01 42.981-57.668 9.153-118.6 7.305-182.31-3.94 39.083 30.426 122.06 47.824 235.32 56.234-27.05 9.198-62.624 13.344-101.72 15.402 38.554 30.762 102.9 34.822 192.7 12.536-14.073 14.425-40.719 25.194-77.725 32.952 36.407 15.518 91.677-4.605 170.13-45.489 29.999-15.633 48.589-6.077 60.89 11.462-23.836-11.991-50.214-8.291-73.784 17.551-29.821 32.694-46.445 71.292-55.517 109.96-25.229 107.2 10.387 216.7 80.948 296.57 48.675 55.099 87.933 107.72 92.768 155.81-9.378 37.22-31.869 67.209-69.486 76.65-26.156 6.565-46.081-5.114-54.801-23.281-7.227-15.057-6.49-31.108 3.582-40.832 8.133-7.852 22.455-12.255 30.445-3.94 4.758 4.951-5.641 14.506-3.94 17.193 1.055 1.666 6.139 1.284 7.88 0.358 9.76-5.193 1.059-25.95-13.611-25.789-24.763 0.273-36.106 19.633-34.743 35.46 2.646 30.727 20.472 50.921 55.876 48.712 30.537-1.905 58.947-24.36 85.604-63.039-5.557 55.715-29.877 99.876-73.426 127.51-29.264 18.571-60.851 29.712-83.455 17.909-16.295-8.509-29.911-21.319-49.07-21.132-15.018 0.146-19.559 11.039-12.536 25.43 11.055 22.655 51.04 29.46 90.619 18.984 84.394-22.34 140.67-106.92 134.32-207.03 16.882 25.951 27.985 55.504 34.743 87.754 8.173 39.003 16.271 75.325 29.729 101.36 33.343 64.516 94.201 99.036 147.21 77.366 16.151-6.605 16.505-19.195 8.59-17.192zm-42.534-941.65c4.896 0 8.865 3.969 8.865 8.865s-3.969 8.865-8.865 8.865-8.865-3.969-8.865-8.865 3.969-8.865 8.865-8.865zm-123.66 203.62c16.834-27.042 27.869-51.125 32.415-74.143 7.768 31.426 0.337 60.839-20.416 89.186-5.413 7.394-11.275 11.74-17.551 13.79-8.775 2.865-11.462-4.656-9.671-12.357 3.722-7.315 11.324-10.212 15.223-16.476zm-7.342-64.472c5.43 23.331-1.095 40.852-17.013 56.771-4.656 4.656-18.379-0.119-12.715-7.88 9.67-13.253 24.713-31.162 29.728-48.891zm-51.399 23.102c6.002-7.79 14.105-16.732 20.595-28.117 4.185 9.833-3.01 38.404-9.133 39.22-8.059 1.075-14.75-6.835-11.462-11.103z"/>
</svg>
